<?xml version="1.0" encoding="UTF-8" standalone="no"?>
<!-- Created with Inkscape (http://www.inkscape.org/) -->

<svg
   width="32"
   height="32"
   viewBox="0 0 8.4666664 8.4666666"
   version="1.1"
   id="svg1"
   inkscape:export-filename="favicon.png"
   inkscape:export-xdpi="96"
   inkscape:export-ydpi="96"
   inkscape:version="1.3.2 (1:1.3.2+202311252150+091e20ef0f)"
   sodipodi:docname="favicon.svg"
   xmlns:inkscape="http://www.inkscape.org/namespaces/inkscape"
   xmlns:sodipodi="http://sodipodi.sourceforge.net/DTD/sodipodi-0.dtd"
   xmlns="http://www.w3.org/2000/svg"
   xmlns:svg="http://www.w3.org/2000/svg">
  <sodipodi:namedview
     id="namedview1"
     pagecolor="#ffffff"
     bordercolor="#999999"
     borderopacity="1"
     inkscape:showpageshadow="2"
     inkscape:pageopacity="0"
     inkscape:pagecheckerboard="0"
     inkscape:deskcolor="#d1d1d1"
     inkscape:document-units="px"
     inkscape:zoom="19.757162"
     inkscape:cx="14.04554"
     inkscape:cy="10.173526"
     inkscape:window-width="1850"
     inkscape:window-height="1136"
     inkscape:window-x="70"
     inkscape:window-y="27"
     inkscape:window-maximized="1"
     inkscape:current-layer="layer1" />
  <defs
     id="defs1" />
  <g
     inkscape:label="Layer 1"
     inkscape:groupmode="layer"
     id="layer1">
    <g
       id="g14"
       transform="translate(24.788066,10.847917)">
      <rect
         style="fill:#4d4d4d;stroke-width:0.265;stroke-linecap:round;stroke-dasharray:0.265, 0.53;-inkscape-stroke:none"
         id="rect4"
         width="8.4666662"
         height="8.4666662"
         x="2.0804826e-08"
         y="0"
         ry="4.2333331" />
      <g
         id="g4"
         style="fill:#ffffff;stroke-width:0.892893"
         transform="matrix(1.1209178,0,0,1.1189895,-1.5039668,0.43281034)"
         mask="none">
        <text
           xml:space="preserve"
           style="font-weight:bold;font-size:9.87778px;line-height:1.2;font-family:'Roboto Mono';-inkscape-font-specification:'Roboto Mono Bold';text-align:end;text-decoration-color:#000000;letter-spacing:-0.254px;text-anchor:end;fill:#ffffff;stroke-width:0.236616;stroke-linecap:round;stroke-dasharray:0.236616, 0.473235;-inkscape-stroke:none"
           x="6.4935503"
           y="6.0057034"
           id="text1"><tspan
             sodipodi:role="line"
             id="tspan1"
             style="font-size:9.87778px;fill:#ffffff;stroke-width:0.236617"
             x="6.2395501"
             y="6.0057034">a</tspan></text>
        <text
           xml:space="preserve"
           style="font-weight:bold;font-size:9.87778px;line-height:1.2;font-family:'Roboto Mono';-inkscape-font-specification:'Roboto Mono Bold';text-align:end;text-decoration-color:#000000;letter-spacing:-0.254px;text-anchor:end;fill:#ffffff;stroke-width:0.236616;stroke-linecap:round;stroke-dasharray:0.236616, 0.473235;-inkscape-stroke:none"
           x="9.8246765"
           y="6.0032926"
           id="text2"><tspan
             sodipodi:role="line"
             id="tspan2"
             style="font-size:9.87778px;fill:#ffffff;stroke-width:0.236617"
             x="9.5706768"
             y="6.0032926">c</tspan></text>
      </g>
    </g>
    <g
       id="g13"
       transform="translate(1.3394533,-15.08125)">
      <path
         d="m 1.2293823,19.56263 c -0.23427439,0 -0.43468594,0.02351 -0.60048013,0.07028 -0.16579419,0.04318 -0.3006208,0.104295 -0.40514322,0.183451 -0.10452242,0.08275 -0.18208484,0.182003 -0.23254394,0.29714 -0.0504591,0.111538 -0.07596436,0.233775 -0.07596436,0.366902 0,0.104343 0.01821804,0.201505 0.05426026,0.291455 0.03964643,0.08635 0.0953472,0.160009 0.16743163,0.221175 0.0720844,0.05757 0.16057767,0.10458 0.2651001,0.14056 0.10812664,0.03238 0.23253919,0.04858 0.37310383,0.04858 0.1513773,0 0.29192773,-0.01828 0.42167963,-0.05426 0.129752,-0.03598 0.2468774,-0.08247 0.3513998,-0.140043 0.1045224,-0.05757 0.1945791,-0.122343 0.2702677,-0.194304 0.075689,-0.07556 0.135033,-0.151301 0.1782837,-0.226859 V 19.56263 Z"
         style="fill:#4d4d4d;stroke-width:0.265;stroke-linecap:round;stroke-dasharray:0.265, 0.53"
         id="path13" />
      <path
         d="m -1.3280843,19.61689 c 0.12251,-0.19641 0.2881923,-0.362194 0.49764405,-0.49661 0.22706595,-0.147519 0.50608658,-0.259305 0.83767495,-0.334864 0.3351926,-0.07916 0.71936108,-0.118339 1.1518677,-0.118339 h 0.8376749 v -0.345715 c 0,-0.136725 -0.021345,-0.258962 -0.064596,-0.366903 -0.043251,-0.111538 -0.1083189,-0.206614 -0.1948202,-0.28577 -0.090106,-0.08275 -0.2035872,-0.14596 -0.3405477,-0.189136 -0.1333562,-0.04677 -0.2900444,-0.07028 -0.47025549,-0.07028 -0.15858574,0 -0.29549254,0.01985 -0.41082763,0.05943 -0.11533508,0.03598 -0.20903535,0.08822 -0.28111978,0.156579 -0.064876,0.06117 -0.11380631,0.134823 -0.1462443,0.221176 -0.02883377,0.08635 -0.0434082,0.181944 -0.0434082,0.286287 h -1.2174967 c -0.1081171,0.374975 -0.1669149,0.77114 -0.1669149,1.18184 0,0.101756 0.00438,0.202389 0.011369,0.302307 z"
         style="fill:#4d4d4d;stroke-width:0.265;stroke-linecap:round;stroke-dasharray:0.265, 0.53"
         id="path11" />
      <path
         d="m 6.093168,22.091158 c -0.076713,0.0352 -0.1559217,0.06781 -0.2382283,0.09715 -0.2991504,0.104343 -0.6161705,0.15658 -0.9513631,0.15658 -0.4474309,0 -0.8402832,-0.07345 -1.1792562,-0.220142 0.00288,0.0058 0.00533,0.01236 0.00827,0.01809 v 0.09147 H 2.2076171 c -0.036042,-0.07196 -0.066755,-0.154498 -0.091984,-0.248047 -0.02523,-0.09355 -0.046574,-0.192796 -0.064596,-0.297139 -0.082897,0.08995 -0.1786776,0.174575 -0.2868042,0.253731 -0.1081267,0.07916 -0.2268154,0.147587 -0.3565674,0.205156 -0.1333562,0.06117 -0.2796304,0.108177 -0.43821615,0.14056 -0.15858574,0.03598 -0.32933167,0.05374 -0.51314696,0.05374 -0.20810302,0 -0.40419929,-0.02229 -0.58962808,-0.06408 0.76750439,0.783973 1.83833029,1.26969 3.02720539,1.26969 1.2807785,0 2.4242669,-0.563617 3.1992878,-1.456758 z"
         style="fill:#4d4d4d;stroke-width:0.265;stroke-linecap:round;stroke-dasharray:0.265, 0.53"
         id="path9" />
      <path
         d="M 7.057967,18.550805 H 5.9577758 C 5.9649858,18.406884 5.9436388,18.270023 5.8931798,18.140494 5.8427208,18.010966 5.7688019,17.899696 5.6714879,17.806148 5.5741739,17.712598 5.4570486,17.638943 5.3200882,17.584973 5.1831278,17.527403 5.03321,17.498673 4.87102,17.498673 c -0.2378786,0 -0.4341298,0.04858 -0.5891113,0.145728 -0.1549815,0.09715 -0.2773139,0.226696 -0.3674194,0.388606 -0.09371,0.161911 -0.1603414,0.346837 -0.1999878,0.555522 -0.036042,0.208685 -0.05426,0.424945 -0.05426,0.648023 v 0.161747 c 0,0.226675 0.018218,0.446074 0.05426,0.658358 0.036042,0.208685 0.1005936,0.392041 0.1943034,0.550353 0.090105,0.161911 0.2129546,0.291461 0.3679362,0.388607 0.1585857,0.09715 0.3584805,0.145728 0.5999633,0.145728 0.1477731,0 0.2883235,-0.02142 0.4216797,-0.0646 0.1333562,-0.04318 0.2504815,-0.104295 0.3513997,-0.183451 0.1009182,-0.07916 0.1784807,-0.174749 0.232544,-0.286288 0.057667,-0.111538 0.082656,-0.235345 0.075448,-0.37207 h 1.0686686 c 0.065224,-0.296264 0.100769,-0.603934 0.100769,-0.920357 0,-0.261034 -0.02444,-0.516044 -0.069246,-0.763778 z"
         style="fill:#4d4d4d;stroke-width:0.265;stroke-linecap:round;stroke-dasharray:0.265, 0.53"
         id="path8" />
      <path
         d="m 2.8938802,15.08125 c -1.2812409,0 -2.42528754,0.56409 -3.20032144,1.457792 0.0844566,-0.0368 0.1717308,-0.07133 0.26510009,-0.101286 0.30635883,-0.100745 0.65617142,-0.150895 1.04903155,-0.150895 0.3532137,0 0.6811647,0.04336 0.9839193,0.129708 0.3063588,0.08635 0.5713217,0.213815 0.7947835,0.382922 0.076987,0.05826 0.1474702,0.122265 0.2129069,0.191203 0.2007963,-0.19308 0.435429,-0.351584 0.7043497,-0.47439 0.3424011,-0.154715 0.738547,-0.232027 1.1890747,-0.232027 0.3604222,0 0.6940969,0.05381 1.0004557,0.161747 0.063574,0.0224 0.1239643,0.04778 0.1839681,0.0739 C 5.3024185,15.637323 4.1659491,15.08125 2.8938802,15.08125 Z"
         style="fill:#4d4d4d;stroke-width:0.265;stroke-linecap:round;stroke-dasharray:0.265, 0.53"
         id="path6" />
      <path
         d="m 2.9993001,16.990694 c -0.052175,0.05017 -0.1022865,0.102182 -0.1498617,0.157096 -0.2306702,0.266254 -0.404013,0.579159 -0.5193481,0.938961 -0.1153351,0.356204 -0.1731161,0.739626 -0.1731161,1.149801 v 0.161747 c 0,0.410174 0.057781,0.795166 0.1731161,1.154968 0.1189393,0.356204 0.2938456,0.66754 0.5245158,0.933793 0.2270659,0.266254 0.5118103,0.476771 0.8542114,0.631486 0.00505,0.0022 0.010426,0.004 0.015503,0.0062 -0.071406,-0.143941 -0.1267402,-0.313953 -0.1648478,-0.51108 -0.039646,-0.205087 -0.059428,-0.464185 -0.059428,-0.777213 v -2.50424 c 0,-0.338214 -0.063505,-0.634925 -0.1896525,-0.890385 -0.082687,-0.169806 -0.1865939,-0.319976 -0.3110921,-0.451135 z"
         style="font-weight:bold;font-size:9.87778px;line-height:1.2;font-family:'Roboto Mono';-inkscape-font-specification:'Roboto Mono Bold';text-align:end;letter-spacing:-0.254px;text-anchor:end;fill:#ffffff;stroke-width:0.236616;stroke-linecap:round;stroke-dasharray:0.236616, 0.473235"
         id="path12" />
      <path
         d="m -0.13332519,22.278226 c 0.18542879,0.04179 0.38152506,0.06408 0.58962808,0.06408 0.18381529,0 0.35456122,-0.01776 0.51314696,-0.05374 0.15858575,-0.03238 0.30485995,-0.07939 0.43821615,-0.14056 0.129752,-0.05757 0.2484407,-0.125999 0.3565674,-0.205156 0.1081266,-0.07916 0.2039071,-0.163781 0.2868042,-0.253731 0.018021,0.104343 0.039366,0.203591 0.064596,0.297139 0.02523,0.09355 0.055942,0.176087 0.091984,0.248047 h 1.5249715 v -0.09147 c -0.00294,-0.0057 -0.00538,-0.01227 -0.00827,-0.01809 -0.00508,-0.0022 -0.01045,-0.004 -0.015503,-0.0062 C 3.3664164,21.963831 3.081672,21.753314 2.8546061,21.48706 2.6239359,21.220807 2.4490296,20.909471 2.3300903,20.553267 2.2147552,20.193465 2.1569742,19.808473 2.1569742,19.398299 v -0.161747 c 0,-0.410175 0.057781,-0.793597 0.1731161,-1.149801 0.1153351,-0.359802 0.2886779,-0.672707 0.5193481,-0.938961 0.047575,-0.05491 0.097687,-0.106927 0.1498617,-0.157096 C 2.9338634,16.921756 2.8633806,16.857752 2.7863932,16.799491 2.5629314,16.630384 2.2979685,16.502921 1.9916097,16.416569 1.6888551,16.330216 1.3609041,16.286861 1.0076904,16.286861 c -0.39286013,0 -0.74267272,0.05015 -1.04903155,0.150895 -0.09336929,0.02996 -0.18064354,0.06448 -0.26510009,0.101286 -0.39520088,0.455711 -0.69410926,0.997209 -0.86609696,1.593701 h 1.2174967 c 0,-0.104343 0.01457443,-0.199935 0.0434082,-0.286287 0.03243799,-0.08635 0.08136831,-0.160009 0.1462443,-0.221176 0.0720844,-0.06836 0.1657847,-0.120599 0.28111978,-0.156579 0.11533509,-0.03958 0.25224189,-0.05943 0.41082763,-0.05943 0.18021109,0 0.33689929,0.02351 0.47025549,0.07028 0.1369605,0.04318 0.2504422,0.106381 0.3405477,0.189136 0.086501,0.07916 0.1515695,0.174232 0.1948202,0.28577 0.043251,0.107941 0.064596,0.230178 0.064596,0.366903 v 0.345715 H 1.1591024 c -0.43250662,0 -0.8166751,0.03918 -1.1518677,0.118339 -0.33158837,0.07556 -0.610609,0.187345 -0.83767495,0.334864 -0.20945175,0.134416 -0.37513405,0.3002 -0.49764405,0.49661 0.072464,1.035581 0.51391741,1.965886 1.19475911,2.661336 z M 1.2293823,19.56263 h 0.767395 v 1.004073 c -0.043251,0.07556 -0.102595,0.151301 -0.1782837,0.226859 -0.075689,0.07196 -0.1657453,0.136735 -0.2702677,0.194304 -0.1045224,0.05757 -0.2216478,0.104063 -0.3513998,0.140043 -0.1297519,0.03598 -0.27030233,0.05426 -0.42167963,0.05426 -0.14056464,0 -0.26497719,-0.01619 -0.37310383,-0.04858 -0.10452243,-0.03598 -0.19301567,-0.08299 -0.2651001,-0.14056 -0.07208443,-0.06117 -0.1277852,-0.134822 -0.16743163,-0.221175 -0.03604222,-0.08995 -0.05426026,-0.187112 -0.05426026,-0.291455 0,-0.133127 0.02550526,-0.255364 0.07596436,-0.366902 0.0504591,-0.115137 0.12802152,-0.214385 0.23254394,-0.29714 0.10452242,-0.07916 0.23934903,-0.140275 0.40514322,-0.183451 0.16579419,-0.04678 0.36620574,-0.07028 0.60048013,-0.07028 z"
         style="font-weight:bold;font-size:9.87778px;line-height:1.2;font-family:'Roboto Mono';-inkscape-font-specification:'Roboto Mono Bold';text-align:end;letter-spacing:-0.254px;text-anchor:end;fill:#ffffff;stroke-width:0.236616;stroke-linecap:round;stroke-dasharray:0.236616, 0.473235"
         id="path10" />
      <path
         d="m 6.0771483,16.519922 c -0.060004,-0.02612 -0.1203946,-0.0515 -0.1839681,-0.0739 -0.3063588,-0.10794 -0.6400335,-0.161747 -1.0004557,-0.161747 -0.4505277,0 -0.8466736,0.07731 -1.1890747,0.232027 -0.2689207,0.122806 -0.5035534,0.28131 -0.7043497,0.47439 0.1244982,0.131159 0.228405,0.281329 0.3110921,0.451135 0.1261477,0.25546 0.1896525,0.552171 0.1896525,0.890385 v 2.50424 c 0,0.313028 0.019781,0.572126 0.059428,0.777213 0.038108,0.197127 0.093441,0.367139 0.1648478,0.51108 0.338973,0.14669 0.7318253,0.220142 1.1792562,0.220142 0.3351926,0 0.6522127,-0.05224 0.9513631,-0.15658 0.082307,-0.02934 0.1615156,-0.06196 0.2382283,-0.09715 0.4526652,-0.521656 0.7790783,-1.155815 0.9332764,-1.856218 H 5.9577758 c 0.00721,0.136725 -0.01778,0.260532 -0.075448,0.37207 -0.054063,0.111539 -0.1316258,0.207131 -0.232544,0.286288 -0.1009182,0.07916 -0.2180435,0.140275 -0.3513997,0.183451 -0.1333562,0.04318 -0.2739066,0.0646 -0.4216797,0.0646 -0.2414828,0 -0.4413776,-0.04858 -0.5999633,-0.145728 C 4.1217595,20.89847 3.9989104,20.768924 3.9088049,20.607013 3.8150949,20.448701 3.7505437,20.265345 3.7145015,20.05666 c -0.036042,-0.212284 -0.05426,-0.431683 -0.05426,-0.658358 v -0.161747 c 0,-0.223078 0.018218,-0.439338 0.05426,-0.648023 0.039646,-0.208685 0.106278,-0.393611 0.1999878,-0.555522 0.090105,-0.16191 0.2124379,-0.29146 0.3674194,-0.388606 0.1549815,-0.09715 0.3512327,-0.145728 0.5891113,-0.145728 0.16219,0 0.3121078,0.02873 0.4490682,0.0863 0.1369604,0.05397 0.2540858,0.127626 0.3513997,0.221175 0.097314,0.09355 0.1712328,0.204818 0.2216919,0.334346 0.050459,0.129529 0.071804,0.26639 0.064596,0.410311 H 7.057967 C 6.9185586,17.780027 6.5717798,17.083423 6.0771483,16.519922 Z"
         style="font-weight:bold;font-size:9.87778px;line-height:1.2;font-family:'Roboto Mono';-inkscape-font-specification:'Roboto Mono Bold';text-align:end;letter-spacing:-0.254px;text-anchor:end;fill:#ffffff;stroke-width:0.236616;stroke-linecap:round;stroke-dasharray:0.236616, 0.473235"
         id="path7" />
    </g>
    <rect
       style="fill:#4d4d4d;stroke-width:0.265001;stroke-linecap:round;stroke-dasharray:0.265001, 0.529999;-inkscape-stroke:none"
       id="rect5"
       width="8.4666662"
       height="8.4666662"
       x="15.665545"
       y="-3.0304363"
       ry="4.2333331" />
  </g>
</svg>
